<svg id="Capa_1" enable-background="new 0 0 511.984 511.984" height="512" viewBox="0 0 511.984 511.984" width="512" xmlns="http://www.w3.org/2000/svg"><g><path d="m287.227 349.611c-5.016 5.018-12.819 5.563-18.555 1.299-19.81-14.725-39.199-31.536-57.631-49.968-18.432-18.431-35.243-37.821-49.968-57.63-4.263-5.736-3.717-13.54 1.299-18.556l59.275-59.275-118.591-118.592-83.64 83.641c-24.018 24.018-25.812 65.83-5.051 117.733 19.13 47.825 55.507 100.004 102.43 146.927 46.922 46.923 99.102 83.3 146.927 102.43 23.972 9.588 45.784 14.366 64.691 14.365 22.031-.001 40.116-6.49 53.041-19.416l83.641-83.641-118.592-118.592zm-108.005-184.13-27.539 27.539-76.166-76.166 27.539-27.538zm95.641 304.284c-44.138-17.655-92.74-51.673-136.855-95.788s-78.133-92.718-95.788-136.855c-15.792-39.479-16.371-70.598-1.591-85.378l13.676-13.676 78.089 78.089c-6.603 14.363-5.248 31.799 4.603 45.052 15.594 20.979 33.369 41.485 52.832 60.947 19.462 19.463 39.968 37.238 60.948 52.832 13.254 9.852 30.689 11.206 45.052 4.603l78.089 78.089-13.676 13.676c-14.781 14.779-45.9 14.2-85.379-1.591zm120.267-33.299-76.166-76.166 27.539-27.538 76.166 76.166z"/><path d="m275.042 256h30c0-27.05-22.007-49.057-49.058-49.057v30c10.509 0 19.058 8.549 19.058 19.057z"/><path d="m344.27 256h30c0-65.223-53.063-118.286-118.286-118.286v30c48.681 0 88.286 39.605 88.286 88.286z"/><path d="m413.127 256h30c0-103.191-83.952-187.143-187.143-187.143v30c86.648 0 157.143 70.494 157.143 157.143z"/><path d="m437.004 74.981c-48.353-48.352-112.64-74.981-181.02-74.981v30c124.617 0 226 101.383 226 226h30c0-68.38-26.629-132.667-74.98-181.019z"/></g></svg>